<?xml version="1.0" encoding="utf-8"?>
<svg viewBox="98.111 84.058 303.778 139.274" xmlns="http://www.w3.org/2000/svg">
  <path d="M 143.721 86.468 C 141.246 87.882 137.475 91.418 135.235 94.6 L 131.11 100.257 L 125.099 99.196 C 115.79 97.545 111.9 99.314 107.893 107.446 C 105.3 112.632 104.711 115.696 104.593 122.296 C 104.593 133.256 107.304 138.324 114.375 140.328 C 130.05 145.041 129.107 144.453 130.875 149.756 C 134.057 159.656 147.846 171.323 156.096 171.323 C 164.7 171.323 165.289 176.037 157.628 184.17 C 148.788 193.598 147.611 193.716 131.228 187.352 C 123.45 184.287 115.318 181.459 113.079 181.106 C 104.947 179.809 98.111 186.526 98.111 195.72 C 98.111 203.969 100.94 206.091 125.807 216.698 C 145.488 225.184 150.321 225.301 162.46 218.347 L 168.706 214.812 L 189.095 216.227 L 209.484 217.641 L 226.927 211.512 C 248.848 203.969 251.44 203.969 270.415 210.687 C 278.429 213.398 286.915 216.108 289.39 216.58 C 291.865 217.051 302.354 216.816 312.726 216.108 L 331.7 214.812 L 336.061 217.641 C 348.082 225.537 354.093 225.184 377.192 215.284 C 387.328 210.923 396.874 206.209 398.288 204.795 C 404.299 198.784 402.531 187.823 394.87 183.109 C 389.449 179.809 387.328 180.045 372.36 185.938 C 353.621 193.245 352.325 193.363 347.611 189.591 C 342.543 185.23 334.882 176.037 335.589 174.86 C 335.825 174.388 340.893 172.266 346.785 170.145 C 352.678 168.024 358.807 165.195 360.457 164.017 C 363.521 161.542 368.353 152.938 369.532 147.635 C 370.121 145.159 371.417 144.217 375.896 143.039 C 390.038 139.502 390.981 139.032 393.103 134.789 C 396.284 128.66 395.46 113.575 391.452 106.503 C 387.564 99.431 383.675 97.545 375.306 99.078 C 370.828 99.903 368.589 99.903 367.882 98.96 C 363.286 92.949 357.628 87.175 354.917 85.76 C 347.846 82.225 344.428 83.168 310.84 98.607 C 267.823 118.289 251.677 125.36 249.908 125.36 C 248.848 125.36 235.648 119.703 220.445 112.867 C 150.674 81.046 152.56 81.754 143.721 86.468 Z M 154.681 89.65 C 154.681 90.003 153.857 91.418 152.796 92.596 C 150.674 94.835 151.146 95.307 156.331 96.132 C 157.51 96.368 159.631 98.017 161.046 99.786 C 163.285 102.849 163.52 104.618 163.52 121.589 C 163.52 138.442 163.285 140.682 160.81 145.984 C 157.628 152.938 153.385 157.652 148.671 159.656 C 145.725 160.834 144.9 160.716 142.778 158.831 C 139.949 156.238 136.532 150.228 137.475 149.285 C 137.828 148.931 139.478 149.756 141.246 151.171 C 144.9 153.999 149.968 154.471 149.968 151.878 C 149.968 150.935 149.26 150.463 148.317 150.817 C 144.9 152.113 145.371 148.813 149.26 143.628 C 154.328 137.028 157.039 128.424 157.039 119.231 C 157.039 110.746 154.681 105.678 150.203 104.618 C 148.435 104.264 145.488 103.557 143.485 103.085 C 136.885 101.553 138.889 95.778 147.611 91.064 C 151.853 88.825 154.681 88.236 154.681 89.65 Z M 351.854 90.71 C 357.51 93.539 359.75 95.896 359.75 98.96 C 359.75 102.261 356.567 104.146 351.028 104.146 C 344.9 104.146 343.25 107.328 343.25 118.996 C 343.25 129.956 345.254 136.91 350.321 143.274 C 354.446 148.342 354.8 151.288 351.382 151.288 C 350.085 151.288 349.378 151.759 349.732 152.467 C 350.911 154.352 355.035 153.763 358.689 151.171 C 363.167 147.988 363.403 150.699 359.043 155.885 C 351.264 165.195 340.068 154.942 336.179 135.024 C 334.293 125.36 335.118 107.211 337.828 102.143 C 339.95 97.782 344.9 94.129 346.785 95.307 C 347.374 95.661 347.964 95.543 347.964 94.835 C 347.964 94.246 347.493 93.303 346.785 92.949 C 345.254 92.007 345.254 88.825 346.785 88.825 C 347.493 88.825 349.732 89.65 351.854 90.71 Z M 191.924 106.032 C 204.181 111.689 222.213 119.821 231.876 124.181 C 248.73 131.842 284.086 147.988 305.418 157.771 L 315.318 162.367 L 314.493 176.627 C 313.786 190.18 311.429 201.141 308.836 202.673 C 306.479 204.087 306.715 202.084 309.661 195.955 C 312.49 189.826 313.668 181.93 311.664 181.93 C 311.193 181.93 309.307 185.349 307.54 189.473 C 305.654 193.598 303.179 197.959 301.764 199.138 C 299.525 201.259 299.172 201.259 291.04 198.195 C 270.415 190.652 170.003 149.285 168.353 147.753 C 167.763 147.163 167.646 145.867 167.999 144.924 C 168.706 143.274 169.413 143.274 174.363 145.278 C 177.428 146.574 197.698 154.706 219.266 163.428 C 240.716 172.266 258.394 178.984 258.394 178.631 C 258.394 178.16 257.334 177.217 256.154 176.627 C 254.858 175.919 245.194 170.852 234.588 165.313 C 223.98 159.656 205.477 149.992 193.338 143.745 L 171.181 132.313 L 171.181 121.117 C 171.181 114.989 171.653 110.038 172.242 110.038 C 172.831 110.038 184.852 114.635 198.995 120.174 C 228.223 131.607 244.369 137.381 245.194 136.674 C 245.665 136.085 239.773 133.256 218.323 123.592 C 193.338 112.396 172.831 102.732 170.356 101.082 C 167.763 99.431 166.585 95.896 168.706 95.896 C 169.296 95.896 179.785 100.492 191.924 106.032 Z M 331.465 97.429 C 331.465 98.372 330.522 99.903 329.461 100.846 C 326.043 103.792 264.523 131.489 262.283 131.017 C 256.862 129.956 262.283 126.656 290.215 114.046 C 306.715 106.621 322.39 99.549 324.982 98.253 C 330.757 95.543 331.465 95.543 331.465 97.429 Z M 138.182 107.681 C 144.192 109.096 149.614 110.392 150.203 110.746 C 150.674 111.1 151.146 115.106 151.146 119.703 L 151.146 128.07 L 146.196 127.246 C 143.131 126.774 140.185 125.36 138.771 123.71 C 135.471 120.057 130.285 116.992 127.81 117.346 C 126.279 117.581 125.689 116.638 125.453 113.103 C 125.099 109.096 125.689 105.325 126.75 105.325 C 126.868 105.325 132.053 106.385 138.182 107.681 Z M 386.149 108.271 C 390.628 115.224 390.745 132.431 386.267 132.431 C 383.91 132.431 380.375 122.178 380.375 115.342 C 380.375 105.442 382.614 102.849 386.149 108.271 Z M 374.363 113.81 C 373.421 123.71 373.303 124.181 369.649 124.181 C 368 124.181 363.167 125.124 358.924 126.185 C 351.5 128.189 351.264 128.189 349.614 125.95 C 347.611 123.239 347.493 114.753 349.497 112.042 C 351.028 109.921 363.167 106.857 370.592 106.621 L 375.071 106.503 L 374.363 113.81 Z M 329.107 120.881 C 329.107 128.307 328.636 130.546 326.868 132.313 C 325.689 133.493 318.618 137.499 311.193 141.388 L 297.522 148.224 L 283.615 141.742 C 275.955 138.206 269.59 134.67 269.355 134.081 C 268.883 132.55 275.129 129.721 300.822 120.057 C 312.136 115.696 322.743 111.453 324.393 110.628 C 328.4 108.507 329.107 109.921 329.107 120.881 Z M 332.642 145.159 C 332.642 146.81 328.872 149.756 325.572 150.699 C 323.922 151.171 322.39 151.995 322.036 152.467 C 321.093 153.999 313.315 154.942 311.429 153.763 C 309.307 152.231 309.307 152.231 318.5 147.988 C 325.925 144.453 332.642 143.156 332.642 145.159 Z M 180.492 171.323 C 186.974 174.506 192.631 177.806 193.102 178.513 C 193.692 179.574 193.338 179.691 191.688 179.102 C 190.509 178.513 186.502 177.099 182.967 175.919 C 175.07 173.091 167.41 168.848 166.703 166.845 C 165.996 164.371 168.47 165.195 180.492 171.323 Z M 337.475 189.826 C 339.361 195.602 337.593 197.134 332.054 194.541 C 325.336 191.359 319.679 192.065 323.333 195.72 C 324.393 196.78 324.157 197.016 322.39 196.545 C 320.504 196.073 319.796 196.545 319.207 198.902 C 318.029 203.852 313.315 211.158 312.843 208.801 C 312.607 207.741 313.55 205.266 314.847 203.498 C 317.676 199.727 320.857 186.409 320.857 178.277 C 320.857 175.331 321.211 172.502 321.8 172.031 C 323.096 170.617 335.825 185.113 337.475 189.826 Z M 178.135 180.988 C 178.724 182.52 179.903 187.352 180.609 191.949 C 181.435 196.426 182.495 200.434 182.849 200.788 C 184.263 201.848 187.681 207.741 187.681 209.038 C 187.681 212.573 184.735 209.155 180.963 200.788 C 178.489 195.602 176.132 191.359 175.66 191.359 C 175.07 191.359 172.006 192.655 168.589 194.306 C 165.289 195.955 162.342 197.252 162.106 197.252 C 161.163 197.252 161.871 189.709 163.049 187.469 C 167.41 179.102 176.013 175.449 178.135 180.988 Z M 187.681 187.234 C 187.681 188.766 188.741 192.42 190.038 195.484 C 192.631 201.612 192.867 203.144 191.335 203.144 C 189.802 203.144 186.502 194.423 185.678 188.059 C 185.206 184.17 185.324 182.991 186.267 183.58 C 187.092 184.052 187.681 185.702 187.681 187.234 Z M 207.716 188.884 C 212.902 190.769 216.556 192.773 216.556 193.716 C 216.556 195.72 202.648 201.377 200.174 200.434 C 197.698 199.491 191.217 189.238 191.217 186.291 C 191.217 183.58 194.281 184.052 207.716 188.884 Z M 130.639 193.245 C 144.074 198.548 146.196 198.784 153.267 196.663 C 155.271 195.955 155.86 196.309 155.86 198.077 C 155.86 199.255 156.92 202.319 158.217 204.912 C 161.4 211.041 161.163 211.63 157.039 209.273 C 155.153 208.212 153.503 206.444 153.503 205.266 C 153.503 203.734 152.678 203.498 149.142 203.852 C 145.607 204.323 140.774 202.791 126.514 197.016 C 116.496 192.891 108.011 188.766 107.775 187.941 C 106.832 185.23 115.2 187.234 130.639 193.245 Z M 391.688 188.412 C 391.452 189.002 384.264 192.42 375.778 195.838 C 353.032 205.03 352.089 205.384 350.203 204.205 C 347.846 202.791 346.785 202.909 346.785 204.677 C 346.785 206.444 339.832 211.984 338.889 210.923 C 338.536 210.687 339.361 208.801 340.657 207.034 C 341.954 205.148 343.25 202.084 343.485 200.198 C 343.839 196.426 344.311 196.309 352.207 197.959 C 354.446 198.312 357.51 197.959 359.867 196.898 C 374.953 190.416 385.56 186.763 388.624 186.998 C 390.628 187.116 391.924 187.706 391.688 188.412 Z" style=""/>
</svg>