<?xml version="1.0" encoding="utf-8"?>
<svg viewBox="98.111 84.058 303.778 258.942" xmlns="http://www.w3.org/2000/svg">
  <path d="M 143.721 86.468 C 141.246 87.882 137.475 91.418 135.235 94.6 L 131.11 100.257 L 125.099 99.196 C 115.79 97.545 111.9 99.314 107.893 107.446 C 105.3 112.632 104.711 115.696 104.593 122.296 C 104.593 133.256 107.304 138.324 114.375 140.328 C 130.05 145.041 129.107 144.453 130.875 149.756 C 134.057 159.656 147.846 171.323 156.096 171.323 C 164.7 171.323 165.289 176.037 157.628 184.17 C 148.788 193.598 147.611 193.716 131.228 187.352 C 123.45 184.287 115.318 181.459 113.079 181.106 C 104.947 179.809 98.111 186.526 98.111 195.72 C 98.111 203.969 100.94 206.091 125.807 216.698 C 145.488 225.184 150.321 225.301 162.46 218.347 L 168.706 214.812 L 189.095 216.227 L 209.484 217.641 L 226.927 211.512 C 248.848 203.969 251.44 203.969 270.415 210.687 C 278.429 213.398 286.915 216.108 289.39 216.58 C 291.865 217.051 302.354 216.816 312.726 216.108 L 331.7 214.812 L 336.061 217.641 C 348.082 225.537 354.093 225.184 377.192 215.284 C 387.328 210.923 396.874 206.209 398.288 204.795 C 404.299 198.784 402.531 187.823 394.87 183.109 C 389.449 179.809 387.328 180.045 372.36 185.938 C 353.621 193.245 352.325 193.363 347.611 189.591 C 342.543 185.23 334.882 176.037 335.589 174.86 C 335.825 174.388 340.893 172.266 346.785 170.145 C 352.678 168.024 358.807 165.195 360.457 164.017 C 363.521 161.542 368.353 152.938 369.532 147.635 C 370.121 145.159 371.417 144.217 375.896 143.039 C 390.038 139.502 390.981 139.032 393.103 134.789 C 396.284 128.66 395.46 113.575 391.452 106.503 C 387.564 99.431 383.675 97.545 375.306 99.078 C 370.828 99.903 368.589 99.903 367.882 98.96 C 363.286 92.949 357.628 87.175 354.917 85.76 C 347.846 82.225 344.428 83.168 310.84 98.607 C 267.823 118.289 251.677 125.36 249.908 125.36 C 248.848 125.36 235.648 119.703 220.445 112.867 C 150.674 81.046 152.56 81.754 143.721 86.468 Z M 154.681 89.65 C 154.681 90.003 153.857 91.418 152.796 92.596 C 150.674 94.835 151.146 95.307 156.331 96.132 C 157.51 96.368 159.631 98.017 161.046 99.786 C 163.285 102.849 163.52 104.618 163.52 121.589 C 163.52 138.442 163.285 140.682 160.81 145.984 C 157.628 152.938 153.385 157.652 148.671 159.656 C 145.725 160.834 144.9 160.716 142.778 158.831 C 139.949 156.238 136.532 150.228 137.475 149.285 C 137.828 148.931 139.478 149.756 141.246 151.171 C 144.9 153.999 149.968 154.471 149.968 151.878 C 149.968 150.935 149.26 150.463 148.317 150.817 C 144.9 152.113 145.371 148.813 149.26 143.628 C 154.328 137.028 157.039 128.424 157.039 119.231 C 157.039 110.746 154.681 105.678 150.203 104.618 C 148.435 104.264 145.488 103.557 143.485 103.085 C 136.885 101.553 138.889 95.778 147.611 91.064 C 151.853 88.825 154.681 88.236 154.681 89.65 Z M 351.854 90.71 C 357.51 93.539 359.75 95.896 359.75 98.96 C 359.75 102.261 356.567 104.146 351.028 104.146 C 344.9 104.146 343.25 107.328 343.25 118.996 C 343.25 129.956 345.254 136.91 350.321 143.274 C 354.446 148.342 354.8 151.288 351.382 151.288 C 350.085 151.288 349.378 151.759 349.732 152.467 C 350.911 154.352 355.035 153.763 358.689 151.171 C 363.167 147.988 363.403 150.699 359.043 155.885 C 351.264 165.195 340.068 154.942 336.179 135.024 C 334.293 125.36 335.118 107.211 337.828 102.143 C 339.95 97.782 344.9 94.129 346.785 95.307 C 347.374 95.661 347.964 95.543 347.964 94.835 C 347.964 94.246 347.493 93.303 346.785 92.949 C 345.254 92.007 345.254 88.825 346.785 88.825 C 347.493 88.825 349.732 89.65 351.854 90.71 Z M 191.924 106.032 C 204.181 111.689 222.213 119.821 231.876 124.181 C 248.73 131.842 284.086 147.988 305.418 157.771 L 315.318 162.367 L 314.493 176.627 C 313.786 190.18 311.429 201.141 308.836 202.673 C 306.479 204.087 306.715 202.084 309.661 195.955 C 312.49 189.826 313.668 181.93 311.664 181.93 C 311.193 181.93 309.307 185.349 307.54 189.473 C 305.654 193.598 303.179 197.959 301.764 199.138 C 299.525 201.259 299.172 201.259 291.04 198.195 C 270.415 190.652 170.003 149.285 168.353 147.753 C 167.763 147.163 167.646 145.867 167.999 144.924 C 168.706 143.274 169.413 143.274 174.363 145.278 C 177.428 146.574 197.698 154.706 219.266 163.428 C 240.716 172.266 258.394 178.984 258.394 178.631 C 258.394 178.16 257.334 177.217 256.154 176.627 C 254.858 175.919 245.194 170.852 234.588 165.313 C 223.98 159.656 205.477 149.992 193.338 143.745 L 171.181 132.313 L 171.181 121.117 C 171.181 114.989 171.653 110.038 172.242 110.038 C 172.831 110.038 184.852 114.635 198.995 120.174 C 228.223 131.607 244.369 137.381 245.194 136.674 C 245.665 136.085 239.773 133.256 218.323 123.592 C 193.338 112.396 172.831 102.732 170.356 101.082 C 167.763 99.431 166.585 95.896 168.706 95.896 C 169.296 95.896 179.785 100.492 191.924 106.032 Z M 331.465 97.429 C 331.465 98.372 330.522 99.903 329.461 100.846 C 326.043 103.792 264.523 131.489 262.283 131.017 C 256.862 129.956 262.283 126.656 290.215 114.046 C 306.715 106.621 322.39 99.549 324.982 98.253 C 330.757 95.543 331.465 95.543 331.465 97.429 Z M 138.182 107.681 C 144.192 109.096 149.614 110.392 150.203 110.746 C 150.674 111.1 151.146 115.106 151.146 119.703 L 151.146 128.07 L 146.196 127.246 C 143.131 126.774 140.185 125.36 138.771 123.71 C 135.471 120.057 130.285 116.992 127.81 117.346 C 126.279 117.581 125.689 116.638 125.453 113.103 C 125.099 109.096 125.689 105.325 126.75 105.325 C 126.868 105.325 132.053 106.385 138.182 107.681 Z M 386.149 108.271 C 390.628 115.224 390.745 132.431 386.267 132.431 C 383.91 132.431 380.375 122.178 380.375 115.342 C 380.375 105.442 382.614 102.849 386.149 108.271 Z M 374.363 113.81 C 373.421 123.71 373.303 124.181 369.649 124.181 C 368 124.181 363.167 125.124 358.924 126.185 C 351.5 128.189 351.264 128.189 349.614 125.95 C 347.611 123.239 347.493 114.753 349.497 112.042 C 351.028 109.921 363.167 106.857 370.592 106.621 L 375.071 106.503 L 374.363 113.81 Z M 329.107 120.881 C 329.107 128.307 328.636 130.546 326.868 132.313 C 325.689 133.493 318.618 137.499 311.193 141.388 L 297.522 148.224 L 283.615 141.742 C 275.955 138.206 269.59 134.67 269.355 134.081 C 268.883 132.55 275.129 129.721 300.822 120.057 C 312.136 115.696 322.743 111.453 324.393 110.628 C 328.4 108.507 329.107 109.921 329.107 120.881 Z M 332.642 145.159 C 332.642 146.81 328.872 149.756 325.572 150.699 C 323.922 151.171 322.39 151.995 322.036 152.467 C 321.093 153.999 313.315 154.942 311.429 153.763 C 309.307 152.231 309.307 152.231 318.5 147.988 C 325.925 144.453 332.642 143.156 332.642 145.159 Z M 180.492 171.323 C 186.974 174.506 192.631 177.806 193.102 178.513 C 193.692 179.574 193.338 179.691 191.688 179.102 C 190.509 178.513 186.502 177.099 182.967 175.919 C 175.07 173.091 167.41 168.848 166.703 166.845 C 165.996 164.371 168.47 165.195 180.492 171.323 Z M 337.475 189.826 C 339.361 195.602 337.593 197.134 332.054 194.541 C 325.336 191.359 319.679 192.065 323.333 195.72 C 324.393 196.78 324.157 197.016 322.39 196.545 C 320.504 196.073 319.796 196.545 319.207 198.902 C 318.029 203.852 313.315 211.158 312.843 208.801 C 312.607 207.741 313.55 205.266 314.847 203.498 C 317.676 199.727 320.857 186.409 320.857 178.277 C 320.857 175.331 321.211 172.502 321.8 172.031 C 323.096 170.617 335.825 185.113 337.475 189.826 Z M 178.135 180.988 C 178.724 182.52 179.903 187.352 180.609 191.949 C 181.435 196.426 182.495 200.434 182.849 200.788 C 184.263 201.848 187.681 207.741 187.681 209.038 C 187.681 212.573 184.735 209.155 180.963 200.788 C 178.489 195.602 176.132 191.359 175.66 191.359 C 175.07 191.359 172.006 192.655 168.589 194.306 C 165.289 195.955 162.342 197.252 162.106 197.252 C 161.163 197.252 161.871 189.709 163.049 187.469 C 167.41 179.102 176.013 175.449 178.135 180.988 Z M 187.681 187.234 C 187.681 188.766 188.741 192.42 190.038 195.484 C 192.631 201.612 192.867 203.144 191.335 203.144 C 189.802 203.144 186.502 194.423 185.678 188.059 C 185.206 184.17 185.324 182.991 186.267 183.58 C 187.092 184.052 187.681 185.702 187.681 187.234 Z M 207.716 188.884 C 212.902 190.769 216.556 192.773 216.556 193.716 C 216.556 195.72 202.648 201.377 200.174 200.434 C 197.698 199.491 191.217 189.238 191.217 186.291 C 191.217 183.58 194.281 184.052 207.716 188.884 Z M 130.639 193.245 C 144.074 198.548 146.196 198.784 153.267 196.663 C 155.271 195.955 155.86 196.309 155.86 198.077 C 155.86 199.255 156.92 202.319 158.217 204.912 C 161.4 211.041 161.163 211.63 157.039 209.273 C 155.153 208.212 153.503 206.444 153.503 205.266 C 153.503 203.734 152.678 203.498 149.142 203.852 C 145.607 204.323 140.774 202.791 126.514 197.016 C 116.496 192.891 108.011 188.766 107.775 187.941 C 106.832 185.23 115.2 187.234 130.639 193.245 Z M 391.688 188.412 C 391.452 189.002 384.264 192.42 375.778 195.838 C 353.032 205.03 352.089 205.384 350.203 204.205 C 347.846 202.791 346.785 202.909 346.785 204.677 C 346.785 206.444 339.832 211.984 338.889 210.923 C 338.536 210.687 339.361 208.801 340.657 207.034 C 341.954 205.148 343.25 202.084 343.485 200.198 C 343.839 196.426 344.311 196.309 352.207 197.959 C 354.446 198.312 357.51 197.959 359.867 196.898 C 374.953 190.416 385.56 186.763 388.624 186.998 C 390.628 187.116 391.924 187.706 391.688 188.412 Z" style=""/>
  <path d="M 132.74501342773436 290.5669860839844 L 132.74501342773436 226.37167358398438 L 158.4231384277344 226.37167358398438 L 158.4231384277344 238.77304077148438 L 145.80292358398438 238.77304077148438 L 145.80292358398438 251.28383178710936 L 157.91249389648436 251.28383178710936 L 157.91249389648436 263.3569274902344 L 145.80292358398438 263.3569274902344 L 145.80292358398438 278.0561950683594 L 159.26205444335938 278.0561950683594 L 159.26205444335938 290.5669860839844 Z M 161.6204345703125 290.5669860839844 L 168.5141357421875 256.5361755371094 L 163.0429443359375 226.33519897460937 L 175.5902099609375 226.33519897460937 L 178.9093994140625 248.40233764648437 L 181.8638427734375 226.33519897460937 L 194.4475830078125 226.33519897460937 L 188.9763916015625 256.5361755371094 L 195.8336181640625 290.5669860839844 L 182.8486572265625 290.5669860839844 L 178.7999755859375 265.4724548339844 L 174.6418701171875 290.5669860839844 Z M 199.62274475097655 290.5669860839844 L 199.62274475097655 226.37167358398438 L 212.38885803222655 226.37167358398438 L 212.38885803222655 249.31420288085937 L 218.44364318847656 249.31420288085937 L 218.44364318847656 226.37167358398438 L 231.20975646972656 226.37167358398438 L 231.20975646972656 290.5669860839844 L 218.44364318847656 290.5669860839844 L 218.44364318847656 261.4602478027344 L 212.38885803222655 261.4602478027344 L 212.38885803222655 290.5669860839844 Z M 235.15472412109375 290.5669860839844 L 241.35540771484375 226.37167358398438 L 263.13074951171876 226.37167358398438 L 269.2220092773438 290.5669860839844 L 257.0759643554687 290.5669860839844 L 256.1640991210937 280.20819702148435 L 248.43148193359374 280.20819702148435 L 247.62904052734376 290.5669860839844 Z M 249.34334716796874 269.9588317871094 L 255.17928466796874 269.9588317871094 L 252.37073974609376 237.31405639648438 L 251.78714599609376 237.31405639648438 Z M 288.0021667480469 291.15057983398435 Q 279.9777526855469 291.15057983398435 276.18439331054685 286.6459655761719 Q 272.3910339355469 282.1413513183594 272.3910339355469 273.3874450683594 L 272.3910339355469 226.37167358398438 L 284.8653503417969 226.37167358398438 L 284.8653503417969 272.8768005371094 Q 284.8653503417969 274.4816833496094 285.0477233886719 275.9589050292969 Q 285.2300964355469 277.4361267089844 285.8866394042969 278.38446655273435 Q 286.5431823730469 279.3328063964844 288.0021667480469 279.3328063964844 Q 289.49762573242185 279.3328063964844 290.1541687011719 278.4027038574219 Q 290.8107116699219 277.47260131835935 290.9748474121094 275.9771423339844 Q 291.13898315429685 274.4816833496094 291.13898315429685 272.8768005371094 L 291.13898315429685 226.37167358398438 L 303.61329956054686 226.37167358398438 L 303.61329956054686 273.3874450683594 Q 303.61329956054686 282.1413513183594 299.8199401855469 286.6459655761719 Q 296.0265808105469 291.15057983398435 288.0021667480469 291.15057983398435 Z M 323.7798217773437 291.15057983398435 Q 314.98944091796875 291.15057983398435 311.1048950195312 286.77362670898435 Q 307.22034912109376 282.39667358398435 307.22034912109376 272.8403259277344 L 307.22034912109376 266.5666931152344 L 319.91351318359375 266.5666931152344 L 319.91351318359375 274.5911071777344 Q 319.91351318359375 276.81605834960936 320.5882934570312 278.0744323730469 Q 321.26307373046876 279.3328063964844 322.94090576171874 279.3328063964844 Q 324.6916870117187 279.3328063964844 325.36646728515626 278.3115173339844 Q 326.04124755859374 277.29022827148435 326.04124755859374 274.9558532714844 Q 326.04124755859374 272.00140991210935 325.45765380859376 270.0135437011719 Q 324.8740600585937 268.0256774902344 323.4333129882813 266.2201843261719 Q 321.99256591796876 264.41469116210936 319.43934326171876 262.0073669433594 L 313.6763549804688 256.5361755371094 Q 307.22034912109376 250.44491577148438 307.22034912109376 242.60287475585938 Q 307.22034912109376 234.39608764648438 311.0319458007813 230.0920837402344 Q 314.8435424804687 225.78807983398437 322.0655151367188 225.78807983398437 Q 330.8923706054687 225.78807983398437 334.59454345703125 230.49330444335936 Q 338.2967163085938 235.1985290527344 338.2967163085938 244.79135131835938 L 325.2388061523437 244.79135131835938 L 325.2388061523437 240.37792358398437 Q 325.2388061523437 239.06483764648436 324.49107666015624 238.33534545898436 Q 323.74334716796875 237.60585327148436 322.46673583984375 237.60585327148436 Q 320.93480224609374 237.60585327148436 320.2235473632812 238.46300659179687 Q 319.5122924804688 239.32015991210938 319.5122924804688 240.6697204589844 Q 319.5122924804688 242.01928100585937 320.2417846679688 243.5876892089844 Q 320.9712768554688 245.15609741210938 323.12327880859374 247.19867553710938 L 330.5276245117187 254.31122436523438 Q 332.75257568359376 256.4267517089844 334.61278076171874 258.77936401367185 Q 336.4729858398438 261.13197631835936 337.60369873046875 264.25055541992185 Q 338.7344116210937 267.3691345214844 338.7344116210937 271.8555114746094 Q 338.7344116210937 280.9012145996094 335.39698486328126 286.02589721679686 Q 332.05955810546874 291.15057983398435 323.7798217773437 291.15057983398435 Z M 348.4956298828125 290.5669860839844 L 348.4956298828125 238.70009155273436 L 340.8724365234375 238.70009155273436 L 340.8724365234375 226.37167358398438 L 368.9578857421875 226.37167358398438 L 368.9578857421875 238.70009155273436 L 361.3346923828125 238.70009155273436 L 361.3346923828125 290.5669860839844 Z" transform="matrix(1, 0, 0, 1, 0, 0)" style="text-transform: uppercase; white-space: pre;"/>
  <path d="M 218.71170654296876 337.552001953125 L 218.71170654296876 304.809814453125 L 224.86947021484374 304.809814453125 Q 227.36234130859376 304.809814453125 228.75760498046876 305.553955078125 Q 230.15286865234376 306.298095703125 230.73887939453124 307.9166015625 Q 231.32489013671875 309.535107421875 231.32489013671875 312.176806640625 L 231.32489013671875 312.958154296875 Q 231.32489013671875 315.6556640625 230.78538818359374 317.3578857421875 Q 230.24588623046876 319.060107421875 228.77620849609374 319.804248046875 Q 229.96683349609376 320.250732421875 230.64586181640624 321.3948486328125 Q 231.32489013671875 322.53896484375 231.60394287109375 324.157470703125 Q 231.88299560546875 325.7759765625 231.88299560546875 327.636328125 L 231.88299560546875 328.361865234375 Q 231.86439208984376 331.5802734375 231.22257080078126 333.608056640625 Q 230.58074951171875 335.63583984375 229.14827880859374 336.5939208984375 Q 227.71580810546874 337.552001953125 225.27874755859375 337.552001953125 Z M 222.78587646484374 334.277783203125 L 225.03690185546876 334.277783203125 Q 226.09730224609376 334.277783203125 226.69261474609374 333.7661865234375 Q 227.28792724609374 333.25458984375 227.52977294921874 331.970947265625 Q 227.77161865234376 330.6873046875 227.77161865234376 328.41767578125 L 227.77161865234376 326.9666015625 Q 227.77161865234376 324.083056640625 227.29722900390624 322.7994140625 Q 226.82283935546874 321.515771484375 225.26014404296876 321.515771484375 L 222.78587646484374 321.515771484375 Z M 222.78587646484374 318.390380859375 L 224.88807373046876 318.390380859375 Q 225.65081787109375 318.390380859375 226.11590576171875 318.2136474609375 Q 226.58099365234375 318.0369140625 226.84144287109376 317.516015625 Q 227.10189208984374 316.9951171875 227.19490966796874 315.9812255859375 Q 227.28792724609374 314.967333984375 227.28792724609374 313.293017578125 L 227.28792724609374 312.158203125 Q 227.28792724609374 310.40947265625 227.01817626953124 309.5444091796875 Q 226.74842529296876 308.679345703125 226.16241455078125 308.40029296875 Q 225.57640380859374 308.121240234375 224.64622802734374 308.121240234375 L 222.78587646484374 308.121240234375 Z M 234.2203826904297 337.552001953125 L 239.1317108154297 304.809814453125 L 244.1732635498047 304.809814453125 L 249.49386901855468 337.552001953125 L 245.6615447998047 337.552001953125 L 244.74997253417968 331.39423828125 L 238.9456756591797 331.39423828125 L 238.1271209716797 337.552001953125 Z M 239.39216003417968 328.0828125 L 244.2662811279297 328.0828125 L 241.7548065185547 310.948974609375 L 241.6989959716797 310.948974609375 Z M 252.9631103515625 337.552001953125 L 252.9631103515625 304.809814453125 L 259.1208740234375 304.809814453125 Q 261.6137451171875 304.809814453125 263.0090087890625 305.553955078125 Q 264.4042724609375 306.298095703125 264.990283203125 307.9166015625 Q 265.5762939453125 309.535107421875 265.5762939453125 312.176806640625 L 265.5762939453125 312.958154296875 Q 265.5762939453125 315.6556640625 265.0367919921875 317.3578857421875 Q 264.4972900390625 319.060107421875 263.0276123046875 319.804248046875 Q 264.2182373046875 320.250732421875 264.897265625 321.3948486328125 Q 265.5762939453125 322.53896484375 265.8553466796875 324.157470703125 Q 266.1343994140625 325.7759765625 266.1343994140625 327.636328125 L 266.1343994140625 328.361865234375 Q 266.1157958984375 331.5802734375 265.473974609375 333.608056640625 Q 264.8321533203125 335.63583984375 263.3996826171875 336.5939208984375 Q 261.9672119140625 337.552001953125 259.5301513671875 337.552001953125 Z M 257.0372802734375 334.277783203125 L 259.2883056640625 334.277783203125 Q 260.3487060546875 334.277783203125 260.9440185546875 333.7661865234375 Q 261.5393310546875 333.25458984375 261.7811767578125 331.970947265625 Q 262.0230224609375 330.6873046875 262.0230224609375 328.41767578125 L 262.0230224609375 326.9666015625 Q 262.0230224609375 324.083056640625 261.5486328125 322.7994140625 Q 261.0742431640625 321.515771484375 259.5115478515625 321.515771484375 L 257.0372802734375 321.515771484375 Z M 257.0372802734375 318.390380859375 L 259.1394775390625 318.390380859375 Q 259.9022216796875 318.390380859375 260.3673095703125 318.2136474609375 Q 260.8323974609375 318.0369140625 261.0928466796875 317.516015625 Q 261.3532958984375 316.9951171875 261.4463134765625 315.9812255859375 Q 261.5393310546875 314.967333984375 261.5393310546875 313.293017578125 L 261.5393310546875 312.158203125 Q 261.5393310546875 310.40947265625 261.269580078125 309.5444091796875 Q 260.9998291015625 308.679345703125 260.413818359375 308.40029296875 Q 259.8278076171875 308.121240234375 258.8976318359375 308.121240234375 L 257.0372802734375 308.121240234375 Z M 268.4718017578125 337.552001953125 L 273.3831298828125 304.809814453125 L 278.4246826171875 304.809814453125 L 283.7452880859375 337.552001953125 L 279.9129638671875 337.552001953125 L 279.0013916015625 331.39423828125 L 273.1970947265625 331.39423828125 L 272.3785400390625 337.552001953125 Z M 273.6435791015625 328.0828125 L 278.5177001953125 328.0828125 L 276.0062255859375 310.948974609375 L 275.9504150390625 310.948974609375 Z" transform="matrix(1, 0, 0, 1, 0, 0)" style="white-space: pre;"/>
</svg>